<svg xmlns="http://www.w3.org/2000/svg" viewBox="0 0 512 512" width="512" height="512" role="img" aria-label="English Voice Coach">
  <defs>
    <linearGradient id="bg" x1="0" y1="0" x2="1" y2="1">
      <stop offset="0" stop-color="#0ea5e9" />
      <stop offset="1" stop-color="#6366f1" />
    </linearGradient>
  </defs>
  <rect width="512" height="512" rx="112" fill="url(#bg)" />
  <g fill="#ffffff">
    <rect x="216" y="96" width="80" height="184" rx="40" />
    <path d="M168 232a16 16 0 0 1 32 0 56 56 0 0 0 112 0 16 16 0 0 1 32 0 88 88 0 0 1-72 86.5V360h36a16 16 0 0 1 0 32H204a16 16 0 0 1 0-32h36v-41.5A88 88 0 0 1 168 232z" />
  </g>
</svg>
